<svg width="235" height="26" viewBox="0 0 235 26" fill="none" xmlns="http://www.w3.org/2000/svg">
<path fill-rule="evenodd" clip-rule="evenodd" d="M74.7514 23.3038C74.7514 23.8107 74.4961 24.0642 73.9854 24.0642H64.9885C64.7712 24.0642 64.5946 24.0008 64.4588 23.8741C64.323 23.7474 64.2551 23.5683 64.2551 23.3369C64.2551 23.1386 64.3013 22.9788 64.3936 22.8576C64.486 22.7363 64.6299 22.6372 64.8255 22.56L65.5264 22.3452C65.7002 22.2901 65.836 22.1854 65.9338 22.0311C66.0316 21.8768 66.0805 21.6565 66.0805 21.37V11.8162C66.0805 11.662 66.0425 11.5325 65.9664 11.4278C65.8904 11.3231 65.7491 11.2267 65.5427 11.1386L64.5974 10.8245C64.3474 10.7033 64.1682 10.5738 64.0595 10.4361C63.9508 10.2983 63.8965 10.1303 63.8965 9.93194C63.8965 9.73359 63.9644 9.57106 64.1002 9.44434L64.1536 9.39979C64.2837 9.30276 64.4534 9.25425 64.6625 9.25425H66.0928L66.0815 9.15766C66.051 8.96448 65.9746 8.77905 65.8523 8.60136C65.6894 8.36445 65.5046 8.09723 65.2982 7.79971C65.0917 7.50219 64.907 7.14682 64.744 6.73359C64.5811 6.32037 64.4996 5.81073 64.4996 5.20467C64.4996 3.76114 64.9885 2.60687 65.9664 1.74186C66.9444 0.876843 68.3352 0.444336 70.1389 0.444336C71.3015 0.444336 72.2659 0.631664 73.0319 1.00632C73.798 1.38098 74.3711 1.8796 74.7514 2.50219C75.1317 3.12478 75.3219 3.80522 75.3219 4.54351C75.3219 5.41403 75.0964 6.06693 74.6455 6.50219C74.1946 6.93745 73.616 7.15508 72.9097 7.15508C72.1273 7.15508 71.4971 6.90164 71.019 6.39475C70.5409 5.88786 70.3019 5.21569 70.3019 4.37822V2.90715C70.3019 2.52147 70.2258 2.23772 70.0737 2.05591C69.9216 1.87409 69.688 1.78318 69.3729 1.78318C68.9708 1.78318 68.6666 1.92092 68.4601 2.1964C68.2537 2.47188 68.1505 2.86858 68.1505 3.38648C68.1505 3.91541 68.2727 4.41128 68.5172 4.87409C68.7617 5.3369 69.0632 5.7694 69.4218 6.17161C69.7803 6.57381 70.1389 6.95949 70.4975 7.32863C70.856 7.69778 71.1576 8.06142 71.402 8.41954L71.4717 8.5269C71.6037 8.74144 71.6918 8.955 71.7358 9.16756L71.7507 9.25425H74.1647C74.4146 9.25425 74.6075 9.30659 74.7433 9.41128C74.8791 9.51596 74.947 9.6785 74.947 9.89888C74.947 10.2295 74.8058 10.4994 74.5232 10.7088C74.2407 10.9182 73.7952 11.0228 73.1868 11.0228H72.0295V21.3204C72.0295 21.6289 72.0757 21.8658 72.1681 22.0311C72.2604 22.1964 72.4098 22.2956 72.6163 22.3286L74.018 22.5435C74.2679 22.5766 74.4526 22.6565 74.5721 22.7832C74.6917 22.9099 74.7514 23.0835 74.7514 23.3038ZM42.6593 23.684C41.6814 24.1578 40.5405 24.3947 39.2366 24.3947C37.8567 24.3947 36.6207 24.1027 35.5287 23.5187C34.4367 22.9347 33.5755 22.089 32.9453 20.9815C32.3151 19.8741 32 18.527 32 16.9402C32 15.4085 32.3287 14.0394 32.9861 12.8328C33.6434 11.6262 34.5589 10.673 35.7324 9.97326C36.9059 9.27354 38.275 8.92367 39.8397 8.92367C41.1762 8.92367 42.3035 9.12202 43.2216 9.51872C44.1398 9.91541 44.8406 10.4526 45.3242 11.1303C45.8077 11.808 46.0495 12.5655 46.0495 13.403C46.0495 14.2846 45.7968 14.976 45.2916 15.4774C44.7863 15.9788 44.099 16.2295 43.2298 16.2295C42.3388 16.2295 41.6624 15.9733 41.2006 15.4609C40.7388 14.9485 40.5079 14.246 40.5079 13.3534V12.2956C40.5079 11.7556 40.4101 11.3479 40.2145 11.0724C40.0189 10.797 39.7419 10.6592 39.3833 10.6592C39.0247 10.6592 38.7015 10.8052 38.4135 11.0972C38.1256 11.3892 37.9028 11.8273 37.7453 12.4113C37.5877 12.9953 37.509 13.7171 37.509 14.5766C37.509 15.8107 37.691 16.8465 38.055 17.684C38.419 18.5215 38.9161 19.1496 39.5463 19.5683C40.1765 19.987 40.8936 20.1964 41.6977 20.1964C42.5018 20.1964 43.1755 20.0779 43.7187 19.841C44.262 19.6041 44.6804 19.2047 44.9737 18.6427C45.1367 18.4884 45.2644 18.3892 45.3568 18.3452C45.4491 18.3011 45.5388 18.279 45.6257 18.279C45.7344 18.2901 45.824 18.3424 45.8946 18.4361C45.9652 18.5297 45.9951 18.6757 45.9843 18.8741C45.8973 19.954 45.5659 20.9071 44.99 21.7336C44.4142 22.56 43.6373 23.2102 42.6593 23.684ZM59.2269 23.3534C58.0045 24.0256 56.5838 24.3617 54.9648 24.3617C53.3893 24.3617 52.0066 24.0339 50.8168 23.3782C49.627 22.7226 48.7007 21.8162 48.0379 20.6592C47.3751 19.5022 47.0437 18.1633 47.0437 16.6427C47.0437 15.1881 47.3914 13.8796 48.0868 12.7171C48.7822 11.5545 49.7438 10.6317 50.9717 9.94847C52.1995 9.26527 53.612 8.92367 55.2093 8.92367C56.7957 8.92367 58.1811 9.25425 59.3655 9.91541C60.5498 10.5766 61.4734 11.4912 62.1362 12.6592C62.7991 13.8273 63.1305 15.1771 63.1305 16.7088C63.1305 18.1633 62.7855 19.4664 62.0955 20.6179C61.4055 21.7694 60.4493 22.6813 59.2269 23.3534ZM56.2035 22.6427C55.8667 22.7088 55.538 22.56 55.2175 22.1964C54.8969 21.8328 54.5927 21.2212 54.3047 20.3617C54.0168 19.5022 53.7424 18.3727 53.4817 16.9733C53.2317 15.5738 53.0905 14.4223 53.0579 13.5187C53.0253 12.6151 53.0905 11.9319 53.2535 11.4691C53.4165 11.0063 53.6664 10.7363 54.0032 10.6592C54.3401 10.5931 54.6687 10.7419 54.9893 11.1055C55.3098 11.4691 55.6168 12.0807 55.9102 12.9402C56.2035 13.7997 56.4806 14.9292 56.7414 16.3286C57.0022 17.7281 57.1461 18.8824 57.1733 19.7914C57.2005 20.7005 57.1298 21.3865 56.9614 21.8493C56.793 22.3121 56.5404 22.5766 56.2035 22.6427ZM85.3619 24.0642C85.8726 24.0642 86.1279 23.8107 86.1279 23.3038C86.1279 23.0835 86.0681 22.9099 85.9486 22.7832C85.8291 22.6565 85.6444 22.5766 85.3945 22.5435L83.9928 22.3286C83.7863 22.2956 83.6369 22.1964 83.5446 22.0311C83.4522 21.8658 83.406 21.6289 83.406 21.3204V11.0228H84.5632C85.1717 11.0228 85.6172 10.9182 85.8997 10.7088C86.1822 10.4994 86.3235 10.2295 86.3235 9.89888C86.3235 9.6785 86.2556 9.51596 86.1198 9.41128C85.9839 9.30659 85.7911 9.25425 85.5411 9.25425H83.1271L83.1122 9.16756C83.0682 8.955 82.9802 8.74144 82.8482 8.5269L82.7785 8.41954C82.534 8.06142 82.2325 7.69778 81.8739 7.32863C81.5154 6.95949 81.1568 6.57381 80.7982 6.17161C80.4397 5.7694 80.1381 5.3369 79.8937 4.87409C79.6492 4.41128 79.5269 3.91541 79.5269 3.38648C79.5269 2.86858 79.6302 2.47188 79.8366 2.1964C80.0431 1.92092 80.3473 1.78318 80.7493 1.78318C81.0644 1.78318 81.2981 1.87409 81.4502 2.05591C81.6023 2.23772 81.6784 2.52147 81.6784 2.90715V4.37822C81.6784 5.21569 81.9174 5.88786 82.3955 6.39475C82.8736 6.90164 83.5038 7.15508 84.2862 7.15508C84.9924 7.15508 85.571 6.93745 86.022 6.50219C86.4729 6.06693 86.6984 5.41403 86.6984 4.54351C86.6984 3.80522 86.5082 3.12478 86.1279 2.50219C85.7476 1.8796 85.1744 1.38098 84.4084 1.00632C83.6424 0.631664 82.678 0.444336 81.5154 0.444336C79.7117 0.444336 78.3208 0.876843 77.3429 1.74186C76.365 2.60687 75.876 3.76114 75.876 5.20467C75.876 5.81073 75.9575 6.32037 76.1205 6.73359C76.2835 7.14682 76.4682 7.50219 76.6747 7.79971C76.8811 8.09723 77.0658 8.36445 77.2288 8.60136C77.3511 8.77905 77.4275 8.96448 77.458 9.15766L77.4692 9.25425H76.039C75.8299 9.25425 75.6602 9.30276 75.5301 9.39979L75.4767 9.44434C75.3409 9.57106 75.273 9.73359 75.273 9.93194C75.273 10.1303 75.3273 10.2983 75.436 10.4361C75.5446 10.5738 75.7239 10.7033 75.9738 10.8245L76.9192 11.1386C77.1256 11.2267 77.2669 11.3231 77.3429 11.4278C77.419 11.5325 77.457 11.662 77.457 11.8162V21.37C77.457 21.6565 77.4081 21.8768 77.3103 22.0311C77.2125 22.1854 77.0767 22.2901 76.9029 22.3452L76.202 22.56C76.0064 22.6372 75.8625 22.7363 75.7701 22.8576C75.6777 22.9788 75.6316 23.1386 75.6316 23.3369C75.6316 23.5683 75.6995 23.7474 75.8353 23.8741C75.9711 24.0008 76.1477 24.0642 76.365 24.0642H85.3619ZM98.1237 23.5848C97.0697 24.1248 95.8528 24.3947 94.4728 24.3947C92.9516 24.3947 91.6151 24.0779 90.4633 23.4443C89.3116 22.8107 88.4124 21.9237 87.7659 20.7832C87.1194 19.6427 86.7961 18.3231 86.7961 16.8245C86.7961 15.2487 87.1085 13.8686 87.7333 12.684C88.3581 11.4994 89.2627 10.5766 90.447 9.91541C91.6314 9.25425 93.0548 8.92367 94.7173 8.92367C96.1299 8.92367 97.3468 9.20191 98.3682 9.75839C99.3896 10.3149 100.175 11.0697 100.723 12.0228C101.272 12.976 101.546 14.0366 101.546 15.2047C101.546 15.7116 101.411 16.111 101.139 16.403L101.074 16.4678C100.806 16.7166 100.437 16.841 99.9655 16.841H92.5147L92.5307 16.9173C92.7284 17.8247 93.0661 18.5514 93.5438 19.0972C94.3587 20.0284 95.4453 20.4939 96.8035 20.4939C97.6728 20.4939 98.4416 20.2956 99.1098 19.8989C99.778 19.5022 100.226 18.9512 100.454 18.246C100.585 18.1027 100.702 18.0063 100.805 17.9567C100.908 17.9071 100.998 17.8824 101.074 17.8824C101.182 17.8824 101.275 17.9264 101.351 18.0146C101.427 18.1027 101.465 18.2515 101.465 18.4609C101.465 19.5408 101.172 20.5297 100.585 21.4278C99.9981 22.3259 99.1777 23.0449 98.1237 23.5848ZM92.3447 15.516C92.3291 15.2625 92.3214 14.9989 92.3214 14.7253C92.3214 13.6895 92.3975 12.8741 92.5496 12.279C92.7017 11.684 92.8973 11.2625 93.1363 11.0146C93.3754 10.7667 93.6416 10.6427 93.935 10.6427C94.3153 10.6427 94.6711 10.9678 95.0025 11.6179C95.3339 12.268 95.4996 13.3479 95.4996 14.8576C95.4996 15.3204 95.2932 15.5518 94.8803 15.5518H92.3467L92.3447 15.516ZM113.705 23.5848C112.651 24.1248 111.434 24.3947 110.054 24.3947C108.533 24.3947 107.197 24.0779 106.045 23.4443C104.893 22.8107 103.994 21.9237 103.347 20.7832C102.701 19.6427 102.378 18.3231 102.378 16.8245C102.378 15.2487 102.69 13.8686 103.315 12.684C103.94 11.4994 104.844 10.5766 106.029 9.91541C107.213 9.25425 108.636 8.92367 110.299 8.92367C111.711 8.92367 112.928 9.20191 113.95 9.75839C114.971 10.3149 115.756 11.0697 116.305 12.0228C116.854 12.976 117.128 14.0366 117.128 15.2047C117.128 15.7116 116.992 16.111 116.721 16.403L116.656 16.4678C116.388 16.7166 116.018 16.841 115.547 16.841H108.096L108.112 16.9173C108.31 17.8247 108.648 18.5514 109.125 19.0972C109.94 20.0284 111.027 20.4939 112.385 20.4939C113.254 20.4939 114.023 20.2956 114.691 19.8989C115.36 19.5022 115.808 18.9512 116.036 18.246C116.166 18.1027 116.283 18.0063 116.386 17.9567C116.49 17.9071 116.579 17.8824 116.655 17.8824C116.764 17.8824 116.856 17.9264 116.932 18.0146C117.008 18.1027 117.046 18.2515 117.046 18.4609C117.046 19.5408 116.753 20.5297 116.166 21.4278C115.58 22.3259 114.759 23.0449 113.705 23.5848ZM107.926 15.516C107.911 15.2625 107.903 14.9989 107.903 14.7253C107.903 13.6895 107.979 12.8741 108.131 12.279C108.283 11.684 108.479 11.2625 108.718 11.0146C108.957 10.7667 109.223 10.6427 109.517 10.6427C109.897 10.6427 110.253 10.9678 110.584 11.6179C110.915 12.268 111.081 13.3479 111.081 14.8576C111.081 15.3204 110.875 15.5518 110.462 15.5518H107.928L107.926 15.516ZM127.6 23.8576C127.464 23.9953 127.266 24.0642 127.005 24.0642H118.856C118.617 24.0642 118.429 23.9981 118.293 23.8658C118.158 23.7336 118.09 23.5518 118.09 23.3204C118.09 23.1441 118.13 22.9981 118.212 22.8824C118.293 22.7666 118.405 22.6592 118.546 22.56L118.921 22.4113C119.062 22.3452 119.16 22.2405 119.214 22.0972C119.269 21.954 119.296 21.7171 119.296 21.3865V12.9898C119.296 12.7253 119.266 12.5352 119.206 12.4195C119.146 12.3038 119.046 12.2129 118.905 12.1468L118.481 12.0972C118.329 12.0091 118.217 11.9154 118.147 11.8162C118.076 11.7171 118.041 11.5903 118.041 11.4361C118.041 11.2598 118.095 11.1027 118.204 10.965C118.312 10.8273 118.497 10.7088 118.758 10.6096L123.387 9.27078C123.658 9.16059 123.886 9.08345 124.071 9.03938C124.256 8.9953 124.413 8.97326 124.544 8.97326C124.729 8.97326 124.867 9.03938 124.959 9.17161L124.989 9.21956C125.065 9.35778 125.118 9.57871 125.147 9.88235L125.271 12.4508L125.299 12.356C125.354 12.177 125.415 12.0054 125.481 11.841C125.878 10.8548 126.402 10.122 127.054 9.64268C127.706 9.16334 128.418 8.92367 129.189 8.92367C130.123 8.92367 130.841 9.23772 131.34 9.86582C131.84 10.4939 132.09 11.4471 132.09 12.7253C132.09 13.9925 131.829 14.9237 131.308 15.5187C130.786 16.1138 130.113 16.4113 129.287 16.4113C128.483 16.4113 127.888 16.2074 127.502 15.7997C127.116 15.392 126.913 14.8135 126.891 14.0642L126.875 13.403C126.864 13.1496 126.815 12.9512 126.728 12.808C126.641 12.6647 126.5 12.5931 126.304 12.5931C126.109 12.5931 125.937 12.695 125.791 12.8989C125.644 13.1027 125.533 13.414 125.457 13.8328C125.381 14.2515 125.343 14.7859 125.343 15.4361V21.2543C125.343 21.5628 125.391 21.808 125.489 21.9898C125.587 22.1716 125.739 22.2846 125.946 22.3286L127.168 22.5766C127.396 22.6096 127.559 22.695 127.657 22.8328C127.755 22.9705 127.804 23.133 127.804 23.3204C127.804 23.5408 127.736 23.7198 127.6 23.8576ZM140.631 24.3617C142.25 24.3617 143.67 24.0256 144.893 23.3534C146.115 22.6813 147.071 21.7694 147.761 20.6179C148.451 19.4664 148.796 18.1633 148.796 16.7088C148.796 15.1771 148.465 13.8273 147.802 12.6592C147.139 11.4912 146.216 10.5766 145.031 9.91541C143.847 9.25425 142.462 8.92367 140.875 8.92367C139.278 8.92367 137.865 9.26527 136.637 9.94847C135.41 10.6317 134.448 11.5545 133.753 12.7171C133.057 13.8796 132.71 15.1881 132.71 16.6427C132.71 18.1633 133.041 19.5022 133.704 20.6592C134.367 21.8162 135.293 22.7226 136.483 23.3782C137.672 24.0339 139.055 24.3617 140.631 24.3617ZM140.883 22.1964C141.204 22.56 141.533 22.7088 141.869 22.6427C142.206 22.5766 142.459 22.3121 142.627 21.8493C142.796 21.3865 142.866 20.7005 142.839 19.7914C142.812 18.8824 142.668 17.7281 142.407 16.3286C142.146 14.9292 141.869 13.7997 141.576 12.9402C141.283 12.0807 140.976 11.4691 140.655 11.1055C140.335 10.7419 140.006 10.5931 139.669 10.6592C139.332 10.7363 139.082 11.0063 138.919 11.4691C138.756 11.9319 138.691 12.6151 138.724 13.5187C138.756 14.4223 138.898 15.5738 139.147 16.9733C139.408 18.3727 139.683 19.5022 139.971 20.3617C140.259 21.2212 140.563 21.8328 140.883 22.1964ZM161.721 24.3947C162.634 24.3947 163.384 24.2267 163.97 23.8906C164.557 23.5545 164.994 23.1551 165.282 22.6923C165.57 22.2295 165.714 21.8052 165.714 21.4195C165.714 21.2543 165.679 21.1165 165.608 21.0063C165.538 20.8961 165.443 20.841 165.323 20.841C165.269 20.841 165.22 20.852 165.176 20.8741C165.133 20.8961 165.095 20.9292 165.062 20.9733C165.008 21.1716 164.924 21.3093 164.81 21.3865C164.696 21.4636 164.573 21.5022 164.443 21.5022C164.258 21.5022 164.12 21.4388 164.027 21.3121C163.935 21.1854 163.889 21.0173 163.889 20.808V13.5022C163.889 12.0476 163.397 10.9209 162.414 10.122C161.43 9.32312 159.89 8.92367 157.793 8.92367C156.163 8.92367 154.802 9.12753 153.71 9.53524C152.618 9.94296 151.798 10.4636 151.249 11.0972C150.701 11.7308 150.426 12.3782 150.426 13.0394C150.426 13.7446 150.63 14.2818 151.037 14.6509C151.445 15.0201 152.034 15.2047 152.806 15.2047C153.751 15.2047 154.495 14.9485 155.039 14.4361C155.582 13.9237 155.854 13.2598 155.854 12.4443V11.1881C155.854 10.8796 155.949 10.6399 156.139 10.4691C156.329 10.2983 156.565 10.2129 156.848 10.2129C157.152 10.2129 157.394 10.3259 157.573 10.5518C157.752 10.7777 157.842 11.0835 157.842 11.4691L157.842 16.2873L157.755 16.2685C157.493 16.2178 157.189 16.1889 156.844 16.1817L156.669 16.1799C154.332 16.1799 152.591 16.5766 151.445 17.37C150.299 18.1633 149.725 19.2708 149.725 20.6923C149.725 21.7722 150.119 22.6592 150.907 23.3534C151.695 24.0476 152.741 24.3947 154.044 24.3947C155.022 24.3947 155.935 24.1936 156.783 23.7914C157.418 23.4898 157.935 23.0936 158.332 22.6029L158.355 22.5743L158.379 22.6482C158.504 23.0055 158.733 23.3256 159.067 23.6085L159.17 23.6923C159.773 24.1606 160.624 24.3947 161.721 24.3947ZM156.106 21.279C156.372 21.6372 156.723 21.8162 157.158 21.8162L157.251 21.813C157.436 21.8001 157.615 21.7484 157.789 21.6581L157.842 21.628V17.3865L157.761 17.3617C157.576 17.3121 157.359 17.2873 157.109 17.2873C156.685 17.2873 156.345 17.4857 156.09 17.8824C155.835 18.279 155.707 18.8631 155.707 19.6344C155.707 20.3727 155.84 20.9209 156.106 21.279ZM173.212 24.4443C175.146 24.4443 176.629 23.9981 177.661 23.1055C178.694 22.2129 179.21 20.9953 179.21 19.4526C179.21 18.516 179.036 17.695 178.688 16.9898C178.34 16.2846 177.732 15.6592 176.863 15.1138C175.993 14.5683 174.771 14.0532 173.195 13.5683C172.609 13.381 172.155 13.1909 171.834 12.9981C171.514 12.8052 171.294 12.5986 171.174 12.3782C171.055 12.1578 170.995 11.9209 170.995 11.6675C170.995 11.2928 171.131 10.9898 171.403 10.7584C171.674 10.527 172.076 10.4113 172.609 10.4113C173.348 10.4113 174.046 10.6592 174.703 11.1551C175.36 11.6509 176.086 12.4994 176.879 13.7005C177.085 13.954 177.292 14.1386 177.498 14.2543C177.705 14.37 177.9 14.4058 178.085 14.3617C178.313 14.2956 178.454 14.1441 178.509 13.9071C178.563 13.6702 178.552 13.3314 178.476 12.8906L178.052 9.84929C178.009 9.52974 177.927 9.30384 177.808 9.17161C177.688 9.03938 177.531 8.97326 177.335 8.97326C177.161 8.97326 176.944 9.03387 176.683 9.15508C176.423 9.27629 176.164 9.40026 175.909 9.52698C175.654 9.6537 175.461 9.71706 175.331 9.71706C175.211 9.71706 175.034 9.65095 174.801 9.51872C174.567 9.38648 174.239 9.25425 173.815 9.12202C173.391 8.98979 172.842 8.92367 172.169 8.92367C171.049 8.92367 170.042 9.12753 169.145 9.53524C168.249 9.94296 167.542 10.5242 167.026 11.279C166.51 12.0339 166.252 12.9347 166.252 13.9815C166.252 14.9071 166.445 15.7171 166.831 16.4113C167.217 17.1055 167.806 17.7005 168.599 18.1964C169.392 18.6923 170.392 19.0945 171.598 19.403C172.38 19.6124 172.981 19.8245 173.399 20.0394C173.817 20.2543 174.105 20.4884 174.263 20.7419C174.421 20.9953 174.499 21.2763 174.499 21.5848C174.499 21.9925 174.363 22.3286 174.092 22.5931C173.82 22.8576 173.407 22.9898 172.853 22.9898C172.332 22.9898 171.834 22.8768 171.362 22.6509C170.889 22.4251 170.403 22.0366 169.903 21.4857C169.403 20.9347 168.844 20.1799 168.224 19.2212C168.04 18.9678 167.83 18.7914 167.597 18.6923C167.363 18.5931 167.127 18.5986 166.888 18.7088C166.66 18.797 166.513 18.9843 166.448 19.2708C166.383 19.5573 166.399 19.9099 166.497 20.3286L167.002 23.6179C167.078 23.9485 167.187 24.1689 167.328 24.279C167.469 24.3892 167.621 24.4443 167.784 24.4443C167.969 24.4443 168.194 24.3837 168.461 24.2625L169.259 23.8989C169.525 23.7777 169.74 23.7171 169.903 23.7171C170.066 23.7171 170.281 23.7777 170.547 23.8989C170.813 24.0201 171.161 24.1413 171.59 24.2625C172.019 24.3837 172.56 24.4443 173.212 24.4443ZM188.663 23.8245C187.946 24.2047 187.098 24.3947 186.12 24.3947C184.469 24.3947 183.227 23.9925 182.396 23.1881C181.565 22.3837 181.149 21.1165 181.149 19.3865V11.9154C181.149 11.684 181.127 11.5077 181.084 11.3865C181.041 11.2653 180.932 11.1661 180.758 11.089L179.992 10.841C179.807 10.7529 179.688 10.6454 179.633 10.5187C179.579 10.392 179.552 10.235 179.552 10.0476C179.552 9.81624 179.633 9.62615 179.796 9.47739C179.959 9.32863 180.16 9.25425 180.399 9.25425H181.198C181.296 9.25425 181.399 9.21569 181.508 9.13855C181.616 9.06142 181.763 8.90715 181.948 8.67574L184.963 6.14682C185.18 5.88235 185.398 5.68125 185.615 5.54351C185.832 5.40577 186.05 5.3369 186.267 5.3369C186.517 5.3369 186.712 5.41403 186.854 5.5683L186.898 5.62299C187.01 5.77753 187.066 6.00173 187.066 6.29558L187.065 9.25425H190.472C190.711 9.25425 190.896 9.30659 191.026 9.41128C191.157 9.51596 191.222 9.6785 191.222 9.89888C191.222 10.2074 191.086 10.4719 190.814 10.6923L190.754 10.7378C190.48 10.9278 190.065 11.0228 189.51 11.0228H187.065L187.066 18.56C187.066 19.3865 187.204 19.9981 187.481 20.3947C187.758 20.7914 188.163 20.9898 188.695 20.9898C188.924 20.9898 189.136 20.9402 189.331 20.841C189.527 20.7419 189.703 20.6124 189.861 20.4526C190.018 20.2928 190.168 20.1138 190.309 19.9154C190.45 19.7171 190.586 19.5187 190.717 19.3204C190.825 19.2763 190.92 19.2956 191.002 19.3782C191.083 19.4609 191.119 19.6289 191.108 19.8824C191.032 20.7749 190.784 21.56 190.366 22.2377C189.948 22.9154 189.38 23.4443 188.663 23.8245ZM199.339 24.3947C200.718 24.3947 201.935 24.1248 202.989 23.5848C204.043 23.0449 204.864 22.3259 205.451 21.4278C206.037 20.5297 206.331 19.5408 206.331 18.4609C206.331 18.2515 206.293 18.1027 206.217 18.0146C206.14 17.9264 206.048 17.8824 205.939 17.8824C205.863 17.8824 205.774 17.9071 205.671 17.9567C205.567 18.0063 205.451 18.1027 205.32 18.246C205.092 18.9512 204.644 19.5022 203.975 19.8989C203.307 20.2956 202.538 20.4939 201.669 20.4939C200.311 20.4939 199.224 20.0284 198.409 19.0972C197.932 18.5514 197.594 17.8247 197.396 16.9173L197.38 16.841H204.831C205.303 16.841 205.672 16.7166 205.94 16.4678L206.005 16.403C206.276 16.111 206.412 15.7116 206.412 15.2047C206.412 14.0366 206.138 12.976 205.589 12.0228C205.04 11.0697 204.255 10.3149 203.234 9.75839C202.212 9.20191 200.996 8.92367 199.583 8.92367C197.921 8.92367 196.497 9.25425 195.313 9.91541C194.128 10.5766 193.224 11.4994 192.599 12.684C191.974 13.8686 191.662 15.2487 191.662 16.8245C191.662 18.3231 191.985 19.6427 192.632 20.7832C193.278 21.9237 194.177 22.8107 195.329 23.4443C196.481 24.0779 197.817 24.3947 199.339 24.3947ZM197.187 14.7253C197.187 14.9989 197.195 15.2625 197.21 15.516L197.212 15.5518H199.746C200.159 15.5518 200.365 15.3204 200.365 14.8576C200.365 13.3479 200.2 12.268 199.868 11.6179C199.537 10.9678 199.181 10.6427 198.801 10.6427C198.507 10.6427 198.241 10.7667 198.002 11.0146C197.763 11.2625 197.567 11.684 197.415 12.279C197.263 12.8741 197.187 13.6895 197.187 14.7253ZM216.289 24.0642C216.55 24.0642 216.748 23.9953 216.884 23.8576C217.02 23.7198 217.088 23.5408 217.088 23.3204C217.088 23.133 217.039 22.9705 216.941 22.8328C216.843 22.695 216.68 22.6096 216.452 22.5766L215.23 22.3286C215.023 22.2846 214.871 22.1716 214.773 21.9898C214.676 21.808 214.627 21.5628 214.627 21.2543V15.4361C214.627 14.7859 214.665 14.2515 214.741 13.8328C214.817 13.414 214.928 13.1027 215.075 12.8989C215.222 12.695 215.393 12.5931 215.588 12.5931C215.784 12.5931 215.925 12.6647 216.012 12.808C216.099 12.9512 216.148 13.1496 216.159 13.403L216.175 14.0642C216.197 14.8135 216.4 15.392 216.786 15.7997C217.172 16.2074 217.767 16.4113 218.571 16.4113C219.397 16.4113 220.07 16.1138 220.592 15.5187C221.114 14.9237 221.374 13.9925 221.374 12.7253C221.374 11.4471 221.124 10.4939 220.625 9.86582C220.125 9.23772 219.408 8.92367 218.473 8.92367C217.702 8.92367 216.99 9.16334 216.338 9.64268C215.686 10.122 215.162 10.8548 214.765 11.841C214.699 12.0054 214.639 12.177 214.583 12.356L214.555 12.4512L214.431 9.88235C214.402 9.57871 214.35 9.35778 214.273 9.21956L214.244 9.17161C214.151 9.03938 214.013 8.97326 213.828 8.97326C213.698 8.97326 213.54 8.9953 213.355 9.03938C213.171 9.08345 212.942 9.16059 212.671 9.27078L208.042 10.6096C207.781 10.7088 207.596 10.8273 207.488 10.965C207.379 11.1027 207.325 11.2598 207.325 11.4361C207.325 11.5903 207.36 11.7171 207.431 11.8162C207.501 11.9154 207.613 12.0091 207.765 12.0972L208.189 12.1468C208.33 12.2129 208.43 12.3038 208.49 12.4195C208.55 12.5352 208.58 12.7253 208.58 12.9898V21.3865C208.58 21.7171 208.553 21.954 208.498 22.0972C208.444 22.2405 208.346 22.3452 208.205 22.4113L207.83 22.56C207.689 22.6592 207.577 22.7666 207.496 22.8824C207.414 22.9981 207.374 23.1441 207.374 23.3204C207.374 23.5518 207.442 23.7336 207.577 23.8658C207.713 23.9981 207.901 24.0642 208.14 24.0642H216.289ZM233.452 23.1055C232.419 23.9981 230.936 24.4443 229.002 24.4443C228.35 24.4443 227.81 24.3837 227.38 24.2625C226.951 24.1413 226.603 24.0201 226.337 23.8989C226.071 23.7777 225.856 23.7171 225.693 23.7171C225.53 23.7171 225.316 23.7777 225.05 23.8989L224.251 24.2625C223.985 24.3837 223.759 24.4443 223.575 24.4443C223.412 24.4443 223.26 24.3892 223.118 24.279C222.977 24.1689 222.868 23.9485 222.792 23.6179L222.287 20.3286C222.189 19.9099 222.173 19.5573 222.238 19.2708C222.303 18.9843 222.45 18.797 222.678 18.7088C222.917 18.5986 223.154 18.5931 223.387 18.6923C223.621 18.7914 223.83 18.9678 224.015 19.2212C224.634 20.1799 225.194 20.9347 225.693 21.4857C226.193 22.0366 226.68 22.4251 227.152 22.6509C227.625 22.8768 228.122 22.9898 228.644 22.9898C229.198 22.9898 229.611 22.8576 229.882 22.5931C230.154 22.3286 230.29 21.9925 230.29 21.5848C230.29 21.2763 230.211 20.9953 230.053 20.7419C229.896 20.4884 229.608 20.2543 229.19 20.0394C228.771 19.8245 228.171 19.6124 227.389 19.403C226.182 19.0945 225.183 18.6923 224.39 18.1964C223.596 17.7005 223.007 17.1055 222.621 16.4113C222.235 15.7171 222.043 14.9071 222.043 13.9815C222.043 12.9347 222.301 12.0339 222.817 11.279C223.333 10.5242 224.039 9.94296 224.936 9.53524C225.832 9.12753 226.84 8.92367 227.959 8.92367C228.633 8.92367 229.181 8.98979 229.605 9.12202C230.029 9.25425 230.358 9.38648 230.591 9.51872C230.825 9.65095 231.001 9.71706 231.121 9.71706C231.251 9.71706 231.444 9.6537 231.7 9.52698C231.955 9.40026 232.213 9.27629 232.474 9.15508C232.734 9.03387 232.952 8.97326 233.126 8.97326C233.321 8.97326 233.479 9.03938 233.598 9.17161C233.718 9.30384 233.799 9.52974 233.843 9.84929L234.267 12.8906C234.343 13.3314 234.353 13.6702 234.299 13.9071C234.245 14.1441 234.104 14.2956 233.875 14.3617C233.691 14.4058 233.495 14.37 233.289 14.2543C233.082 14.1386 232.876 13.954 232.669 13.7005C231.876 12.4994 231.151 11.6509 230.493 11.1551C229.836 10.6592 229.138 10.4113 228.399 10.4113C227.867 10.4113 227.465 10.527 227.193 10.7584C226.921 10.9898 226.785 11.2928 226.785 11.6675C226.785 11.9209 226.845 12.1578 226.965 12.3782C227.084 12.5986 227.304 12.8052 227.625 12.9981C227.945 13.1909 228.399 13.381 228.986 13.5683C230.561 14.0532 231.784 14.5683 232.653 15.1138C233.522 15.6592 234.131 16.2846 234.478 16.9898C234.826 17.695 235 18.516 235 19.4526C235 20.9953 234.484 22.2129 233.452 23.1055Z" fill="white"/>
<path fill-rule="evenodd" clip-rule="evenodd" d="M13.4893 4.44702C9.97493 0.935462 4.76554 0.429955 1.87661 3.322C-1.01383 6.21254 -0.508337 11.4221 3.00008 14.9352C3.93606 15.8712 5.01454 16.5867 6.15301 17.0997C6.52651 14.9292 7.59748 12.8426 9.22344 11.1296C8.68496 10.9376 8.13297 10.7756 7.55698 10.6181C4.14606 9.6821 2.4511 6.83655 2.05511 3.5005C2.38262 3.89436 2.68082 4.30747 2.97814 4.71937C3.555 5.51854 4.12855 6.31312 4.90654 6.95355C6.11679 7.95009 7.44522 8.33478 8.89855 8.75564C8.95466 8.77188 9.01096 8.78819 9.06745 8.80458C9.75593 9.00409 10.3544 9.29959 10.9034 9.6446C12.3464 8.59008 13.9738 7.88807 15.6538 7.59856C15.1423 6.46005 14.4253 5.38303 13.4893 4.44702ZM7.54648 17.9337C7.76998 15.7602 8.82296 13.6347 10.5104 11.9471C14.0248 8.43558 19.2342 7.92857 22.1232 10.8221C25.0136 13.7127 24.5096 18.9222 20.9967 22.4353C19.3092 24.1228 17.1838 25.1758 15.0103 25.4008C14.7208 25.4293 14.4343 25.4443 14.1538 25.4443C12.2849 25.4443 10.6154 24.7888 9.38544 23.5588C7.96947 22.1443 7.31549 20.1463 7.54648 17.9337ZM12.6869 19.7172C13.8388 18.8382 15.0853 18.4902 16.4413 18.1197C19.8522 17.1837 21.5457 14.3382 21.9432 11.0021C21.6184 11.3938 21.3224 11.8041 21.0273 12.2132C20.4487 13.0152 19.8735 13.8125 19.0917 14.4552C17.8778 15.4533 16.5463 15.8387 15.0864 16.2611L14.9308 16.3062C11.5934 17.2752 9.94343 20.0968 9.56244 23.3803C9.89121 22.9853 10.1924 22.5752 10.492 22.1673C11.1423 21.2817 11.7852 20.4063 12.6869 19.7172Z" fill="#0E8784"/>
</svg>
